<?xml version="1.0" encoding="iso-8859-1"?>
<!-- Uploaded to: SVG Repo, www.svgrepo.com, Generator: SVG Repo Mixer Tools -->
<!DOCTYPE svg PUBLIC "-//W3C//DTD SVG 1.1//EN" "http://www.w3.org/Graphics/SVG/1.1/DTD/svg11.dtd">
<svg height="800px" width="800px" version="1.1" id="Capa_1" xmlns="http://www.w3.org/2000/svg" xmlns:xlink="http://www.w3.org/1999/xlink" 
	 viewBox="0 0 370.32 370.32" xml:space="preserve">
<g>
	<path style="fill:#020202;" d="M148.879,85.993H95.135c-8.283,0-15,6.716-15,15c0,8.284,6.717,15,15,15h53.744
		c8.284,0,15-6.716,15-15C163.879,92.709,157.163,85.993,148.879,85.993z"/>
	<path style="fill:#020202;" d="M148.879,148.327H95.135c-8.283,0-15,6.716-15,15c0,8.284,6.717,15,15,15h53.744
		c8.284,0,15-6.716,15-15C163.879,155.043,157.163,148.327,148.879,148.327z"/>
	<path style="fill:#020202;" d="M325.879,225.752h-24.41V73.703c0-3.934-1.561-7.705-4.344-10.484l-58.877-58.88
		C235.465,1.561,231.699,0,227.766,0H50.58C34.527,0,21.469,13.059,21.469,29.112v312.095c0,16.054,13.059,29.113,29.111,29.113
		h221.777c16.053,0,29.111-13.06,29.111-29.113v-30.048h24.41c12.688,0,22.973-10.285,22.973-22.973v-39.462
		C348.852,236.038,338.566,225.752,325.879,225.752z M269.855,337.906H53.082V32.414H207.17V75.99
		c0,10.555,8.555,19.107,19.105,19.107h43.58v130.655h-74.178c-12.688,0-22.973,10.286-22.973,22.973v39.462
		c0,12.688,10.285,22.973,22.973,22.973h74.178V337.906z M233.283,252.19c-2.716,0-4.92-2.203-4.92-4.921v-1.287
		c0-2.718,2.204-4.92,4.92-4.92h18.148c2.718,0,4.918,2.202,4.918,4.92v32.306c0,10.855-6.125,17.598-15.987,17.598
		c-5.946,0-11.498-3.065-15.231-8.409c-1.364-1.955-1.13-4.606,0.555-6.294l0.901-0.902c1.034-1.035,2.477-1.558,3.935-1.422
		c1.459,0.137,2.779,0.914,3.606,2.124c1.713,2.506,3.811,3.775,6.234,3.775c1.818,0,4.862,0,4.862-6.47V252.19H233.283z
		 M284.072,295.886c-6.935,0-14.172-2.98-18.887-7.777c-1.895-1.926-1.883-5.018,0.027-6.926l0.902-0.903
		c0.938-0.939,2.223-1.478,3.547-1.44c1.327,0.018,2.593,0.572,3.504,1.539c2.483,2.619,6.866,4.38,10.906,4.38
		c4.174,0,9.046-1.239,9.046-4.732c0.028-3.461-2.145-4.637-9.633-6.906c-6.878-2.081-17.269-5.229-17.269-17.163
		c0-8.91,7.745-14.895,19.273-14.895c5.145,0,10.754,1.559,14.639,4.069c2.258,1.458,2.928,4.459,1.503,6.739l-0.643,1.03
		c-0.698,1.117-1.815,1.907-3.1,2.195c-1.285,0.286-2.63,0.047-3.739-0.667c-2.078-1.34-5.559-2.239-8.66-2.239
		c-3.922,0-8.145,1.177-8.145,3.767c0,3.022,1.68,4.183,9.458,6.532c6.983,2.112,17.537,5.3,17.442,17.576
		C304.245,289.512,296.139,295.886,284.072,295.886z"/>
</g>
</svg>